<?xml version="1.0" encoding="utf-8"?>
<!-- Generator: Adobe Illustrator 27.8.1, SVG Export Plug-In . SVG Version: 6.00 Build 0)  -->
<svg version="1.1" id="Layer_1" xmlns="http://www.w3.org/2000/svg" xmlns:xlink="http://www.w3.org/1999/xlink" x="0px" y="0px"
    viewBox="0 0 288 80" style="fill: currentColor" xml:space="preserve">
    <polygon points="4.5,18.8 26.3,18.8 26.3,74.4 52.2,74.4 56.5,60.2 42.7,60.2 42.7,18.8 64,18.8 64,5.2 4.5,5.2 "/>
    <polygon points="67.3,74.5 84.2,74.5 103.7,5.2 86.8,5.2 "/>
    <polygon points="104.9,5.2 124.2,74.5 141.1,74.5 121.9,5.2 "/>
    <polygon points="261.4,60.8 261.4,5.2 235.4,5.2 231.2,19.4 245,19.4 245,60.8 223.7,60.8 223.7,74.4 283.2,74.4 283.2,60.8 "/>
    <path d="M185.7,48.6H200v9.7c-4.6,2.3-9.7,3.3-14.8,3.1c-14.4,0-22.6-9.3-22.6-22.3c0-12.2,7.5-21.4,19.5-21.5
        c5.1-0.3,10.1,1.5,13.9,4.9l6-14.8c-6.1-3.3-13-4.9-19.9-4.7c-21.4,0-36.4,15.1-36.4,36.2c0,22.1,15.3,36.7,39.2,36.7
        c16.7,0,27.4-6.4,31.3-9.9V34.9h-24.8L185.7,48.6z"/>
</svg>
